<svg xmlns="http://www.w3.org/2000/svg" viewBox="0 0 800 500" width="800" height="500" role="img" aria-label="DSH Harness 封面占位图">
  <defs>
    <linearGradient id="bg" x1="0" y1="0" x2="1" y2="1">
      <stop offset="0" stop-color="#1d1c1a"/>
      <stop offset="1" stop-color="#121110"/>
    </linearGradient>
    <linearGradient id="accent" x1="0" y1="0" x2="1" y2="0">
      <stop offset="0" stop-color="#d8c39b"/>
      <stop offset="1" stop-color="#ff4b2b"/>
    </linearGradient>
  </defs>
  <rect width="800" height="500" fill="url(#bg)"/>
  <g stroke="#d8c39b" stroke-opacity=".16" stroke-width="1">
    <path d="M0 100h800M0 200h800M0 300h800M0 400h800"/>
    <path d="M160 0v500M320 0v500M480 0v500M640 0v500"/>
  </g>
  <rect x="70" y="88" width="660" height="324" rx="14" fill="#100f0e" stroke="#d8c39b" stroke-opacity=".32" stroke-width="2"/>
  <path d="M70 132h660" stroke="#d8c39b" stroke-opacity=".32" stroke-width="2"/>
  <g fill="#d8c39b" fill-opacity=".55">
    <circle cx="98" cy="110" r="5"/><circle cx="118" cy="110" r="5"/><circle cx="138" cy="110" r="5"/>
  </g>
  <rect x="104" y="166" width="230" height="58" rx="10" fill="none" stroke="url(#accent)" stroke-width="2.5"/>
  <rect x="366" y="166" width="230" height="58" rx="10" fill="none" stroke="#d8c39b" stroke-opacity=".28" stroke-width="2.5"/>
  <rect x="104" y="252" width="230" height="58" rx="10" fill="none" stroke="#d8c39b" stroke-opacity=".28" stroke-width="2.5"/>
  <rect x="366" y="252" width="230" height="58" rx="10" fill="none" stroke="#d8c39b" stroke-opacity=".28" stroke-width="2.5"/>
  <path d="M334 195h32M334 281h32" stroke="url(#accent)" stroke-width="2.5" stroke-linecap="round"/>
  <path d="M219 355h230" stroke="#d8c39b" stroke-opacity=".22" stroke-width="3" stroke-linecap="round"/>
  <text x="400" y="392" fill="#9d9a92" font-family="Helvetica, Arial, sans-serif" font-size="17" letter-spacing="3" text-anchor="middle">LOCAL CODING AGENT · WEB GUI</text>
</svg>
